<svg xmlns="http://www.w3.org/2000/svg" width="400" height="400" viewBox="0 0 400 400">
  <rect fill="#f3f4f6" width="400" height="400"/>
  <g transform="translate(150, 150)">
    <path fill="#9ca3af" d="M75 0H25C11.193 0 0 11.193 0 25v50c0 13.807 11.193 25 25 25h50c13.807 0 25-11.193 25-25V25c0-13.807-11.193-25-25-25zM25 10h50c8.284 0 15 6.716 15 15v32.929l-16.464-16.465a5 5 0 00-7.072 0L50 57.929l-8.464-8.465a5 5 0 00-7.072 0L10 73.929V25c0-8.284 6.716-15 15-15zm50 80H25c-7.91 0-14.41-6.128-14.968-13.888L35 51.071l8.464 8.465a5 5 0 007.072 0L67 43.071l22.968 22.968C89.399 73.817 82.877 90 75 90zm-40-45a10 10 0 110-20 10 10 0 010 20z"/>
  </g>
</svg>
